<?xml version="1.0" encoding="UTF-8" standalone="no"?>
<svg
   xmlns:dc="http://purl.org/dc/elements/1.1/"
   xmlns:cc="http://creativecommons.org/ns#"
   xmlns:rdf="http://www.w3.org/1999/02/22-rdf-syntax-ns#"
   xmlns:svg="http://www.w3.org/2000/svg"
   xmlns="http://www.w3.org/2000/svg"
   xmlns:sodipodi="http://sodipodi.sourceforge.net/DTD/sodipodi-0.dtd"
   xmlns:inkscape="http://www.inkscape.org/namespaces/inkscape"
   width="210mm"
   height="25mm"
   viewBox="0 0 210 25"
   version="1.1"
   id="svg196"
   inkscape:version="1.0.1 (3bc2e813f5, 2020-09-07)"
   sodipodi:docname="banner.svg">
  <defs
     id="defs190" />
  <sodipodi:namedview
     id="base"
     pagecolor="#ffffff"
     bordercolor="#666666"
     borderopacity="1.0"
     inkscape:pageopacity="0.0"
     inkscape:pageshadow="2"
     inkscape:zoom="1.4"
     inkscape:cx="405.05381"
     inkscape:cy="4.5800271"
     inkscape:document-units="mm"
     inkscape:current-layer="layer1"
     inkscape:document-rotation="0"
     showgrid="false"
     inkscape:window-width="1920"
     inkscape:window-height="1017"
     inkscape:window-x="-8"
     inkscape:window-y="-8"
     inkscape:window-maximized="1"
     height="147mm" />
  <metadata
     id="metadata193">
    <rdf:RDF>
      <cc:Work
         rdf:about="">
        <dc:format>image/svg+xml</dc:format>
        <dc:type
           rdf:resource="http://purl.org/dc/dcmitype/StillImage" />
        <dc:title />
      </cc:Work>
    </rdf:RDF>
  </metadata>
  <g
     inkscape:label="Layer 1"
     inkscape:groupmode="layer"
     id="layer1">
    <path
       style="fill:#ac9393;stroke:#000000;stroke-width:0.5;stroke-linecap:butt;stroke-linejoin:miter;stroke-opacity:1;fill-opacity:1;stroke-miterlimit:4;stroke-dasharray:none"
       d="M 0.05920026,-0.55224083 H 17.362481 l 0.01537,11.56727483 c 0,0 -3.903297,8.56414 -9.3674898,7.193692 C 2.5461635,16.838279 0.49742862,12.160208 0.16190804,11.073302 -0.17361245,9.9863961 0.07607527,11.015459 0.07607527,11.015459 Z"
       id="path38"
       sodipodi:nodetypes="cccsscc" />
    <path
       style="fill:#e9afaf;stroke:#000000;stroke-width:0.5;stroke-linecap:butt;stroke-linejoin:miter;stroke-opacity:1;fill-opacity:1;stroke-miterlimit:4;stroke-dasharray:none"
       d="M 17.36047,-0.55027467 H 35.179503 L 34.982061,11.970188 c 0,0 -4.195617,7.701265 -9.822679,6.331101 -5.627063,-1.370164 -6.861069,-4.346726 -7.20659,-5.433408 -0.345521,-1.086681 -0.574944,-1.852847 -0.574944,-1.852847 z"
       id="path38-8" />
    <path
       style="fill:#ac9393;fill-opacity:1;stroke:#000000;stroke-width:0.5;stroke-linecap:butt;stroke-linejoin:miter;stroke-opacity:1;stroke-miterlimit:4;stroke-dasharray:none"
       d="M 35.179503,-0.55027467 H 52.998537 L 52.801095,11.970188 c 0,0 -3.959381,8.173735 -9.586444,6.803571 -5.627065,-1.370164 -7.631844,-4.723312 -7.977364,-5.809994 -0.345524,-1.086681 -0.255226,-0.993573 -0.255226,-0.993573 z"
       id="path38-8-4"
       sodipodi:nodetypes="cccsscc" />
    <path
       style="fill:#e9afaf;fill-opacity:1;stroke:#000000;stroke-width:0.5;stroke-linecap:butt;stroke-linejoin:miter;stroke-opacity:1;stroke-miterlimit:4;stroke-dasharray:none"
       d="M 52.998537,-0.55027467 H 70.817563 L 70.620131,11.970187 c 0,0 -4.195618,7.701265 -9.82268,6.331101 -5.627066,-1.370164 -7.617024,-5.197172 -7.962542,-6.283854 -0.345525,-1.086681 0.163628,-12.56770867 0.163628,-12.56770867 z"
       id="path38-8-4-7"
       sodipodi:nodetypes="cccsscc" />
    <path
       style="fill:#ac9393;fill-opacity:1;stroke:#000000;stroke-width:0.5;stroke-linecap:butt;stroke-linejoin:miter;stroke-opacity:1;stroke-miterlimit:4;stroke-dasharray:none"
       d="M 70.817563,-0.55027467 H 88.636601 L 88.439158,11.970188 c 0,0 -4.19561,7.701265 -9.822672,6.331101 -5.627062,-1.370164 -7.333542,-4.44122 -7.679064,-5.527902 -0.345523,-1.086682 -0.317291,-0.8032 -0.317291,-0.8032 z"
       id="path38-8-4-7-4"
       inkscape:transform-center-x="24.293393"
       inkscape:transform-center-y="-2.4054406"
       sodipodi:nodetypes="cccsscc" />
    <path
       style="fill:#e9afaf;fill-opacity:1;stroke:#000000;stroke-width:0.5;stroke-linecap:butt;stroke-linejoin:miter;stroke-opacity:1;stroke-miterlimit:4;stroke-dasharray:none"
       d="M 88.636601,-0.55027467 H 106.45564 L 106.2582,11.970188 c 0,0 -3.05044,7.548265 -9.539194,7.039806 -5.773787,-0.452434 -7.522531,-4.677455 -7.868053,-5.764137 -0.345522,-1.086681 -0.411795,-1.275669 -0.411795,-1.275669 z"
       id="path38-8-4-7-4-2"
       inkscape:transform-center-x="24.293394"
       inkscape:transform-center-y="-2.4054406"
       sodipodi:nodetypes="cccsscc" />
    <path
       style="fill:#ac9393;fill-opacity:1;stroke:#000000;stroke-width:0.5;stroke-linecap:butt;stroke-linejoin:miter;stroke-opacity:1;stroke-miterlimit:4;stroke-dasharray:none"
       d="m 106.45564,-0.55027467 h 17.81903 L 124.07723,11.970189 c 0,0 -4.24287,7.890253 -9.86993,6.520088 -5.62706,-1.370164 -7.28629,-4.252232 -7.63181,-5.338914 -0.34552,-1.086681 -0.31729,-1.181175 -0.31729,-1.181175 z"
       id="path38-8-4-7-4-2-8"
       inkscape:transform-center-x="24.293395"
       inkscape:transform-center-y="-2.4054406"
       sodipodi:nodetypes="cccsscc" />
    <path
       style="fill:#e9afaf;fill-opacity:1;stroke:#000000;stroke-width:0.5;stroke-linecap:butt;stroke-linejoin:miter;stroke-opacity:1;stroke-miterlimit:4;stroke-dasharray:none"
       d="M 124.27467,-0.55027467 H 142.0937 L 141.89625,11.970189 c 0,0 -4.76258,7.890253 -10.38963,6.520088 -5.62706,-1.370164 -6.86107,-4.252232 -7.20658,-5.338914 -0.34553,-1.086681 -0.22281,-1.181174 -0.22281,-1.181174 z"
       id="path38-8-4-7-4-2-8-9"
       inkscape:transform-center-x="24.293391"
       inkscape:transform-center-y="-2.4054406"
       sodipodi:nodetypes="cccsscc" />
    <path
       style="fill:#ac9393;fill-opacity:1;stroke:#000000;stroke-width:0.5;stroke-linecap:butt;stroke-linejoin:miter;stroke-opacity:1;stroke-miterlimit:4;stroke-dasharray:none"
       d="m 142.0937,-0.55027467 h 17.81902 L 159.71528,11.970189 c 0,0 -4.19562,7.701265 -9.82267,6.3311 -5.62706,-1.370164 -7.14455,-3.874256 -7.49007,-4.960938 -0.34553,-1.086681 -0.50629,-1.370162 -0.50629,-1.370162 z"
       id="path38-8-4-7-4-2-8-9-7"
       inkscape:transform-center-x="24.293393"
       inkscape:transform-center-y="-2.4054406"
       sodipodi:nodetypes="cccsscc" />
    <path
       style="fill:#e9afaf;fill-opacity:1;stroke:#000000;stroke-width:0.5;stroke-linecap:butt;stroke-linejoin:miter;stroke-opacity:1;stroke-miterlimit:4;stroke-dasharray:none"
       d="m 159.91272,-0.55027467 h 17.81903 L 177.53431,11.970189 c 0,0 -5.09331,7.701265 -10.72036,6.3311 -5.62707,-1.370164 -6.29412,-4.063244 -6.63963,-5.149926 -0.34554,-1.086681 -0.45904,-1.181174 -0.45904,-1.181174 z"
       id="path38-8-4-7-4-2-8-9-7-9"
       inkscape:transform-center-x="24.293395"
       inkscape:transform-center-y="-2.4054406"
       sodipodi:nodetypes="cccsscc" />
    <path
       style="fill:#ac9393;fill-opacity:1;stroke:#000000;stroke-width:0.5;stroke-linecap:butt;stroke-linejoin:miter;stroke-opacity:1;stroke-miterlimit:4;stroke-dasharray:none"
       d="m 177.73175,-0.55027467 h 17.81903 L 195.35333,11.970189 c 0,0 -4.19562,7.701265 -9.82267,6.3311 -5.62706,-1.370164 -7.37268,-4.417885 -7.71819,-5.504567 -0.34554,-1.086681 -0.27819,-0.826533 -0.27819,-0.826533 z"
       id="path38-8-4-7-4-2-8-9-7-9-7"
       inkscape:transform-center-x="24.293392"
       inkscape:transform-center-y="-2.4054406"
       sodipodi:nodetypes="cccsscc" />
    <path
       style="fill:#ffd5d5;fill-opacity:1;stroke:#000000;stroke-width:0.5;stroke-linecap:butt;stroke-linejoin:miter;stroke-opacity:1;stroke-miterlimit:4;stroke-dasharray:none"
       d="M 195.54598,-0.55508709 H 210.0721 L 209.91113,11.982631 c 0,0 -2.80606,7.948113 -7.39324,6.57606 -4.58721,-1.372053 -6.67985,-4.163728 -6.96152,-5.251907 -0.28168,-1.088179 -0.20304,-1.336595 -0.20304,-1.336595 z"
       id="path38-8-4-7-4-2-8-9-7-9-7-2"
       inkscape:transform-center-x="19.804039"
       inkscape:transform-center-y="-2.4087555"
       sodipodi:nodetypes="cccsscc" />
  </g>
</svg>
