<?xml version="1.0" encoding="UTF-8" standalone="no"?>
<svg
   xmlns:osb="http://www.openswatchbook.org/uri/2009/osb"
   xmlns:dc="http://purl.org/dc/elements/1.1/"
   xmlns:cc="http://creativecommons.org/ns#"
   xmlns:rdf="http://www.w3.org/1999/02/22-rdf-syntax-ns#"
   xmlns:svg="http://www.w3.org/2000/svg"
   xmlns="http://www.w3.org/2000/svg"
   xmlns:xlink="http://www.w3.org/1999/xlink"
   xmlns:sodipodi="http://sodipodi.sourceforge.net/DTD/sodipodi-0.dtd"
   xmlns:inkscape="http://www.inkscape.org/namespaces/inkscape"
   width="297mm"
   height="210mm"
   viewBox="0 0 297 210"
   version="1.1"
   id="svg1228"
   inkscape:version="1.0.1 (3bc2e813f5, 2020-09-07)"
   sodipodi:docname="bee.svg">
  <defs
     id="defs1222">
    <linearGradient
       id="linearGradient3791"
       osb:paint="solid">
      <stop
         style="stop-color:#000000;stop-opacity:1;"
         offset="0"
         id="stop3789" />
    </linearGradient>
    <linearGradient
       inkscape:collect="always"
       xlink:href="#linearGradient3791"
       id="linearGradient3793"
       x1="128.1432"
       y1="118.77902"
       x2="174.99371"
       y2="118.77902"
       gradientUnits="userSpaceOnUse" />
  </defs>
  <sodipodi:namedview
     id="base"
     pagecolor="#ffffff"
     bordercolor="#666666"
     borderopacity="1.0"
     inkscape:pageopacity="0.0"
     inkscape:pageshadow="2"
     inkscape:zoom="0.98994949"
     inkscape:cx="511.71095"
     inkscape:cy="368.88238"
     inkscape:document-units="mm"
     inkscape:current-layer="layer1"
     inkscape:document-rotation="0"
     showgrid="false"
     inkscape:window-width="1267"
     inkscape:window-height="1024"
     inkscape:window-x="321"
     inkscape:window-y="0"
     inkscape:window-maximized="0" />
  <metadata
     id="metadata1225">
    <rdf:RDF>
      <cc:Work
         rdf:about="">
        <dc:format>image/svg+xml</dc:format>
        <dc:type
           rdf:resource="http://purl.org/dc/dcmitype/StillImage" />
        <dc:title></dc:title>
      </cc:Work>
    </rdf:RDF>
  </metadata>
  <g
     inkscape:label="Layer 1"
     inkscape:groupmode="layer"
     id="layer1">
    <ellipse
       style="fill:#ffd765;fill-opacity:1;stroke:#000000;stroke-width:0.970527;stroke-opacity:0.963855"
       id="path1244"
       cx="136.2861"
       cy="61.781605"
       rx="29.356577"
       ry="26.151052" />
    <ellipse
       style="fill:#f2f2f2;stroke:#000000;stroke-width:0.970527;stroke-opacity:0.963855"
       id="path1246"
       cx="115.6534"
       cy="53.838531"
       rx="10.662531"
       ry="9.4094896" />
    <ellipse
       style="fill:#f2f2f2;stroke:#000000;stroke-width:0.970527;stroke-opacity:0.963855"
       id="path1246-0"
       cx="156.22639"
       cy="54.449535"
       rx="10.662531"
       ry="9.4094896" />
    <ellipse
       style="fill:#241c1c;stroke:#000000;stroke-width:0.970527;stroke-opacity:0.963855"
       id="path1263"
       cx="115.23797"
       cy="53.47192"
       rx="5.2620277"
       ry="4.8880467" />
    <ellipse
       style="fill:#241c1c;stroke:#000000;stroke-width:0.970527;stroke-opacity:0.963855"
       id="path1263-5"
       cx="156.7803"
       cy="54.205139"
       rx="5.2620282"
       ry="4.8880467" />
    <ellipse
       style="fill:#ffd765;fill-opacity:1;stroke:#000000;stroke-width:1.19008;stroke-opacity:0.963855"
       id="path1280"
       cx="135.45523"
       cy="111.15088"
       rx="35.055641"
       ry="30.935972" />
    <path
       style="fill:#ffffff;stroke:#000000;stroke-width:0.364233px;stroke-linecap:butt;stroke-linejoin:miter;stroke-opacity:1"
       d="m 123.8234,70.091281 c 0,0 6.36982,5.132451 11.21641,5.254651 4.84661,0.122209 8.03153,-2.810624 9.69321,-4.032637 1.66169,-1.222013 1.93865,-1.099812 1.93865,-1.099812 z"
       id="path1282"
       sodipodi:nodetypes="csscc" />
    <path
       style="fill:#2b1100;stroke:#000000;stroke-width:0.364233px;stroke-linecap:butt;stroke-linejoin:miter;stroke-opacity:1"
       d="m 107.28067,93.738799 55.91016,-0.864101 c 0,0 2.58056,3.307188 4.3083,6.826339 2.03081,4.136413 2.25945,6.397543 1.66457,6.135053 l -67.95384,0.77768 c 0,0 2.74166,-10.02347 6.07081,-12.874971 z"
       id="path3797"
       sodipodi:nodetypes="ccsccc" />
    <path
       style="fill:#2b1100;fill-opacity:1;stroke:#000000;stroke-width:0.364233px;stroke-linecap:butt;stroke-linejoin:miter;stroke-opacity:1"
       d="m 101.60153,116.11881 67.95383,0.0864 c 0,0 -0.88124,4.92533 -2.25206,6.91275 -1.37083,1.9874 -2.44792,3.97481 -2.44792,3.97481 l -58.45596,0.25923 c -0.89528,-0.15802 -4.86363,-7.23542 -4.79789,-11.2332 z"
       id="path3814"
       sodipodi:nodetypes="ccscccc" />
    <path
       style="fill:#2b1100;fill-opacity:1;stroke:#000000;stroke-width:0.370985px;stroke-linecap:butt;stroke-linejoin:miter;stroke-opacity:1"
       d="m 128.04583,141.71996 7.92458,15.52101 8.60943,-16.05931 c 0,0 -9.00077,2.51208 -16.53401,0.5383 z"
       id="path3816" />
    <path
       style="fill:#2b1100;fill-opacity:1;stroke:#000000;stroke-width:0.528018px;stroke-linecap:butt;stroke-linejoin:miter;stroke-opacity:1"
       d="m 126.20608,37.199432 c 0,0 1.64619,-19.225991 -5.26788,-22.466326 -6.91409,-3.240338 -18.76681,0.432044 -6.91409,4.536469 11.8527,4.104427 12.18197,17.929857 12.18197,17.929857 z"
       id="path3818" />
    <path
       style="fill:#2b1100;fill-opacity:1;stroke:#000000;stroke-width:0.528019px;stroke-linecap:butt;stroke-linejoin:miter;stroke-opacity:1"
       d="m 145.07071,36.75764 c 0,0 -1.6462,-19.225991 5.26787,-22.466326 6.9141,-3.240338 18.76682,0.432044 6.9141,4.53647 -11.85272,4.104425 -12.18197,17.929856 -12.18197,17.929856 z"
       id="path3818-8" />
    <path
       style="fill:#f6f6f6;fill-opacity:1;stroke:#000000;stroke-width:0.364233px;stroke-linecap:butt;stroke-linejoin:miter;stroke-opacity:1"
       d="m 164.97298,59.987072 c 0,0 33.6635,-31.573687 42.86764,-32.956236 9.20411,-1.382548 10.37911,-0.864091 11.16244,-0.518455 0.78333,0.345636 1.76248,8.46811 0.78333,12.270118 -0.97918,3.802005 -13.90411,40.785178 -26.63321,43.89591 -12.72911,3.110736 10.66424,23.204721 -3.82737,34.956371 -14.49161,11.75166 -32.3508,23.7481 -29.1675,15.70911 0.41343,-1.04408 16.38773,-15.287 8.82636,-32.26644 -7.16335,-16.085715 -17.91081,-17.048747 -16.65965,-17.269576 -1.3e-4,-9e-5 7.60296,-5.952277 10.06555,-11.272568 2.4916,-5.383033 2.84002,-11.148342 2.58241,-12.548234 z"
       id="path3835"
       sodipodi:nodetypes="cssssssscsc" />
    <path
       style="fill:#f6f6f6;fill-opacity:1;stroke:#000000;stroke-width:0.364233px;stroke-linecap:butt;stroke-linejoin:miter;stroke-opacity:1"
       d="m 106.56698,59.668715 c 0,0 -33.663495,-31.573687 -42.867626,-32.956236 -9.204122,-1.382548 -10.379119,-0.864092 -11.162449,-0.518455 -0.783331,0.345636 -1.762488,8.468109 -0.783331,12.270117 0.97917,3.802006 13.904107,40.785178 26.633215,43.895911 12.729106,3.110742 -10.664244,23.204708 3.827366,34.956368 14.491612,11.75166 32.350805,23.74809 29.167505,15.70911 -0.41343,-1.04408 -16.387738,-15.287 -8.82636,-32.26645 7.16334,-16.085708 17.91081,-17.04874 16.65965,-17.26957 1e-4,-7.8e-5 -7.60296,-5.95227 -10.06555,-11.272564 -2.49161,-5.383031 -2.84004,-11.148339 -2.58242,-12.548231 z"
       id="path3835-1"
       sodipodi:nodetypes="cssssssscsc" />
    <use
       x="0"
       y="0"
       xlink:href="#path3835-1"
       id="use3852"
       width="100%"
       height="100%" />
  </g>
</svg>
