<?xml version="1.0" encoding="UTF-8" standalone="no"?>
<svg
   xmlns:dc="http://purl.org/dc/elements/1.1/"
   xmlns:cc="http://creativecommons.org/ns#"
   xmlns:rdf="http://www.w3.org/1999/02/22-rdf-syntax-ns#"
   xmlns:svg="http://www.w3.org/2000/svg"
   xmlns="http://www.w3.org/2000/svg"
   xmlns:sodipodi="http://sodipodi.sourceforge.net/DTD/sodipodi-0.dtd"
   xmlns:inkscape="http://www.inkscape.org/namespaces/inkscape"
   width="210mm"
   height="297mm"
   viewBox="0 0 210 297"
   version="1.1"
   id="svg8"
   inkscape:version="1.0.1 (3bc2e813f5, 2020-09-07)"
   sodipodi:docname="bouquet.svg">
  <defs
     id="defs2" />
  <sodipodi:namedview
     id="base"
     pagecolor="#ffffff"
     bordercolor="#666666"
     borderopacity="1.0"
     inkscape:pageopacity="0.0"
     inkscape:pageshadow="2"
     inkscape:zoom="0.7"
     inkscape:cx="379.19875"
     inkscape:cy="542.2384"
     inkscape:document-units="mm"
     inkscape:current-layer="layer1"
     inkscape:document-rotation="0"
     showgrid="false"
     inkscape:window-width="1267"
     inkscape:window-height="1040"
     inkscape:window-x="156"
     inkscape:window-y="0"
     inkscape:window-maximized="0" />
  <metadata
     id="metadata5">
    <rdf:RDF>
      <cc:Work
         rdf:about="">
        <dc:format>image/svg+xml</dc:format>
        <dc:type
           rdf:resource="http://purl.org/dc/dcmitype/StillImage" />
        <dc:title />
      </cc:Work>
    </rdf:RDF>
  </metadata>
  <g
     inkscape:label="Layer 1"
     inkscape:groupmode="layer"
     id="layer1">
    <path
       style="fill:#ff9955;stroke:#000000;stroke-width:0.272701px;stroke-linecap:butt;stroke-linejoin:miter;stroke-opacity:1"
       d="m 153.8623,130.05565 c 0,0 8.00481,-2.20761 8.30129,-3.55137 0.29647,-1.34376 3.75534,-4.60718 0.3953,-7.48667 -3.36005,-2.87948 -6.3248,-4.60717 -6.3248,-4.60717 0,0 0.49413,-4.22326 -0.19765,-6.43086 -0.69177,-2.20761 -2.17414,-3.74334 -4.84242,-4.12727 -2.66827,-0.38393 -9.38836,1.91966 -9.38836,3.55137 0,1.63171 -8.30129,-3.16744 -11.26603,-0.38394 -2.96475,2.78351 -4.24947,6.43087 -2.7671,9.31035 1.48237,2.87949 1.48237,3.16744 1.48237,3.16744 l -3.26122,3.3594 c 0,0 -3.85417,6.81479 0.98825,9.02239 4.84242,2.20762 9.48719,1.24779 9.48719,1.24779 l 5.13889,5.47102 c 0,0 5.9295,3.64735 8.79542,-0.76787 2.86592,-4.41521 3.45887,-7.77461 3.45887,-7.77461 z"
       id="path24" />
    <ellipse
       style="fill:#782121;stroke-width:0.264583"
       id="path26"
       cx="-144.07013"
       cy="120.5744"
       rx="8.598958"
       ry="7.7485118"
       transform="scale(-1,1)" />
    <path
       style="fill:#ff9955;fill-opacity:1;stroke:#000000;stroke-width:0.264583px;stroke-linecap:butt;stroke-linejoin:miter;stroke-opacity:1"
       d="m 145.39304,97.706843 c 0,0 7.18155,-0.944938 6.89806,-4.630208 -0.28348,-3.685268 -1.60679,-4.142701 -3.34404,-5.144961 -1.73725,-1.00226 -1.77066,-1.00226 -1.77066,-1.00226 0,0 0.86862,-4.844261 -0.70158,-6.180608 -1.57021,-1.336347 -3.14042,-1.937706 -4.24291,-1.770661 -1.10248,0.167042 -5.51243,3.173825 -5.51243,3.173825 0,0 -4.54358,-2.00452 -6.64833,-0.7684 -2.10475,1.236123 -3.37428,2.405425 -3.0736,4.176086 0.30068,1.77066 1.48105,4.564041 1.48105,4.564041 0,0 -2.10249,2.338729 -2.59858,3.496281 -0.4961,1.157552 -0.87407,3.307291 0.0236,4.275854 0.89769,0.968566 1.88988,2.055246 3.54352,1.866257 1.65365,-0.188986 4.37035,-0.212611 4.37035,-0.212611 0,0 2.53447,4.986312 6.04238,4.685632 3.50791,-0.30067 4.47676,-2.87314 4.47676,-2.87314 0,0 1.21073,-3.43484 1.05638,-3.655127 z"
       id="path28" />
    <ellipse
       style="fill:#782121;fill-opacity:1;stroke-width:0.264583"
       id="path32"
       cx="-138.79082"
       cy="91.005272"
       rx="6.8153729"
       ry="6.0135641"
       transform="scale(-1,1)" />
    <path
       style="fill:#ff9955;fill-opacity:1;stroke:#000000;stroke-width:0.264583px;stroke-linecap:butt;stroke-linejoin:miter;stroke-opacity:1"
       d="m 120.54967,99.424264 c 0,0 1.46998,-7.015827 -1.60362,-8.953529 -3.0736,-1.937705 -4.6104,-2.873148 -8.21854,-0.801809 -3.60813,2.071338 -4.87766,3.006783 -4.87766,3.006783 0,0 -7.798329,-1.961425 -9.735457,-0.780248 -1.937133,1.181176 -2.834823,1.181176 -3.260043,3.401784 -0.42522,2.220611 -0.66146,3.496281 0.33073,5.953125 0.99218,2.45685 1.18117,2.92932 1.18117,2.92932 0,0 -4.58296,3.82701 -4.34672,6.61458 0.23623,2.78758 0.66146,4.58296 2.36235,5.6224 1.70089,1.03943 3.874255,1.60639 6.803571,1.41741 2.929309,-0.18899 2.787569,-0.23624 2.787569,-0.23624 l 4.04387,4.91183 c 0,0 3.0736,2.83974 7.38332,0.86862 4.30972,-1.97111 4.94449,-8.51921 4.94449,-8.51921 0,0 7.61718,-1.80407 8.68626,-4.54358 1.06908,-2.73952 0.7684,-4.07586 0.7684,-4.07586 0,0 -0.63477,-3.00679 -2.40543,-4.10927 -1.77066,-1.10249 -4.84426,-2.706106 -4.84426,-2.706106 z"
       id="path34" />
    <ellipse
       style="fill:#782121;fill-opacity:1;stroke-width:0.264583"
       id="path38"
       cx="-108.48914"
       cy="105.07033"
       rx="8.9201202"
       ry="7.6505904"
       transform="scale(-1,1)" />
    <path
       style="fill:#ff9955;fill-opacity:1;stroke:#000000;stroke-width:0.269376px;stroke-linecap:butt;stroke-linejoin:miter;stroke-opacity:1"
       d="m 110.50761,70.5342 c 0,0 0.52053,-3.467302 -0.17351,-4.834217 -0.69404,-1.366915 -1.56159,-2.400438 -3.1926,-2.633812 -1.63099,-0.233377 -2.35974,-0.333394 -3.85193,0.433409 -1.49219,0.766809 -3.539616,2.400441 -3.539616,2.400441 0,0 -3.74783,-1.166881 -5.482944,-1.033521 -1.7351,0.133356 -2.70676,0.50009 -3.5396,1.533611 -0.83286,1.033521 -1.631,3.033888 -0.58994,5.30097 1.04106,2.267077 1.00636,2.333757 1.00636,2.333757 0,0 -2.42915,2.467116 -2.74147,3.267263 -0.31232,0.800146 -0.83285,3.567317 0.48583,4.834214 1.31869,1.266898 3.67843,1.533614 3.67843,1.533614 0,0 3.296696,-0.100016 3.990741,-0.266716 0.694042,-0.166697 1.665699,2.433778 2.845572,3.333944 1.179867,0.900163 3.435507,1.867005 5.864657,0.500089 2.42915,-1.366916 2.29034,-2.733832 2.29034,-2.733832 l 0.20821,-3.133904 c 0,0 4.68479,-0.300056 6.31579,-2.200401 1.631,-1.900348 2.15153,-2.267082 1.31868,-4.367464 -0.83285,-2.100383 -4.9277,-4.234106 -4.893,-4.267445 z"
       id="path42" />
    <ellipse
       style="fill:#782121;fill-opacity:1;stroke-width:0.268625"
       id="path46"
       cx="-101.64036"
       cy="74.067078"
       rx="5.9467468"
       ry="5.278573"
       transform="scale(-1,1)" />
    <path
       style="fill:#ff9955;fill-opacity:1;stroke:#000000;stroke-width:0.264583px;stroke-linecap:butt;stroke-linejoin:miter;stroke-opacity:1"
       d="m 86.14527,83.721725 c 0,0 2.55134,-8.693452 -2.83482,-10.110862 -5.38616,-1.417412 -8.78795,0.377976 -10.48884,2.456844 -1.70089,2.078869 -1.98437,2.173365 -1.98437,2.173365 0,0 -4.53572,-3.212799 -7.74852,-2.55134 -3.21279,0.661458 -5.57514,2.267857 -5.66964,5.669642 -0.0945,3.401785 1.88988,7.370535 1.88988,7.370535 0,0 -6.04762,5.291666 -3.96875,9.07143 2.07887,3.779761 2.55134,3.968751 5.85863,4.063241 3.3073,0.0945 5.76414,0 5.76414,0 0,0 3.1183,5.10268 4.8192,5.66964 1.70089,0.56697 6.52009,3.3073 8.40997,-0.94494 1.88988,-4.25223 3.02381,-7.370531 3.02381,-7.370531 0,0 6.2366,-1.511906 7.55952,-3.779761 1.32292,-2.267857 2.07887,-5.10268 1.13393,-6.898066 -0.94494,-1.795388 -5.76414,-4.819197 -5.76414,-4.819197 z"
       id="path48" />
    <ellipse
       style="fill:#782121;fill-opacity:1;stroke-width:0.28208"
       id="path50"
       cx="-73.672058"
       cy="88.635422"
       rx="8.3154764"
       ry="7.8430057"
       transform="scale(-1,1)" />
    <path
       style="fill:#008000;stroke:#000000;stroke-width:0.264583px;stroke-linecap:butt;stroke-linejoin:miter;stroke-opacity:1"
       d="m 151.25167,103.75446 c 0,0 2.10534,-2.25886 0.30127,-4.630874 -1.80407,-2.372019 -2.10475,-2.472245 -2.10475,-2.472245 0,0 -2.49295,1.28311 -3.27405,1.169304 -0.7811,-0.113802 -0.7811,-0.113802 -0.7811,-0.113802 0,0 -0.15435,2.251959 -1.1232,4.256477 -0.96885,2.00452 -3.94222,2.93997 -5.31198,2.53907 -1.36976,-0.40091 -4.08046,-2.12974 -4.6104,-3.54133 -0.52994,-1.411582 -0.52994,-1.411582 -0.52994,-1.411582 0,0 -4.51477,0.576372 -5.14954,0.375915 -0.63476,-0.200451 -1.43657,-0.400905 -2.03793,-1.035669 -0.60135,-0.634765 -0.98555,-0.785104 -1.1693,-1.319644 -0.18375,-0.534538 -0.28397,-1.787364 -0.25057,-2.438834 0.0334,-0.651468 0.35079,-1.302938 0.56795,-1.737252 0.21716,-0.434313 2.3052,-3.090304 2.2885,-3.140416 -0.0167,-0.05012 0.21117,-0.271621 0.21117,-0.271621 l -1.3111,-3.449034 c 0,0 -4.3231,-1.984375 -6.96894,0.02363 -2.64583,2.007997 -2.74032,2.480469 -2.74032,2.480469 0,0 0.8032,-2.126118 0.40159,-3.496281 -0.40159,-1.370163 -2.6222,-3.992372 -3.73251,-4.677455 -1.1103,-0.68508 -1.15755,-0.637834 -1.15755,-0.637834 0,0 -2.8112,1.110306 -3.80929,1.18708 -0.9981,0.07678 -1.19354,-0.04302 -1.19354,-0.04302 0,0 0.24269,3.616073 -0.4542,4.39565 -0.6969,0.779576 -2.22061,2.043432 -3.18918,2.149739 -0.96856,0.106305 -1.64183,0.259858 -2.35054,0.118118 -0.7087,-0.141742 -2.551336,-0.968565 -3.035616,-1.712706 -0.484283,-0.744141 -1.311105,-1.889882 -1.311105,-1.889882 l -0.590588,-0.803198 -0.177178,-0.07087 -2.114303,0.188989 c 0,0 -1.9135,0.212611 -2.42141,0.05906 -0.50791,-0.153551 -3.84514,-1.034376 -4.079,-2.688106 -0.23387,-1.653731 -0.16705,-2.589173 -0.0668,-2.956669 0.10023,-0.367495 0.23386,-0.968853 0.51783,-1.436573 0.28398,-0.467723 1.61999,-1.866056 1.77945,-2.031421 0.15946,-0.165364 0.69099,-0.732329 0.69099,-0.732329 l -1.06306,-2.344635 -0.29529,-0.968563 c 0,0 0.16536,-0.106306 -1.33473,0.03544 -1.5001,0.14174 -2.38598,0.649647 -2.97656,1.039434 -0.59059,0.389787 -1.38198,1.086681 -1.38198,1.086681 l -0.54334,0.649647 c 0,0 1.33473,0.496094 1.75995,0.93313 0.42522,0.437034 0.99219,1.192985 1.07487,1.405599 0.0827,0.212611 0.38979,1.110303 0.44885,1.405599 0.0591,0.295294 0.23623,1.700893 0.23623,1.700893 0,0 0.10631,0.318915 0.0236,1.240234 -0.0827,0.921316 -0.27167,1.771764 -0.38979,2.539526 -0.11812,0.767766 -0.11812,1.051248 -0.11812,1.051248 0,0 1.6064,0.956752 2.05525,1.311103 0.44885,0.354354 2.70489,2.256047 2.70489,2.256047 0,0 1.42133,1.466201 1.3211,2.919481 -0.10022,1.453277 -0.15034,2.238383 -0.55124,3.240643 -0.4009,1.00226 -1.33635,2.739512 -2.02123,3.140416 -0.68487,0.400905 -2.47224,1.369756 -3.07359,1.620322 -0.60136,0.250565 -3.25735,1.11919 -3.25735,1.11919 l -0.32574,0.133636 -0.45937,1.202715 10.20636,4.6104 1.17306,-1.14914 -1.27329,-3.21069 c 0,0 -0.96885,-2.697758 -0.48442,-4.309727 0.48442,-1.611971 0.25056,-1.737254 0.53454,-2.23003 0.28397,-0.492779 0.6562,-1.59475 2.45159,-2.397951 1.795389,-0.803198 4.488469,-0.661458 4.488469,-0.661458 l 5.245751,1.038183 0.64312,0.150339 4.94449,-3.148769 c 0,0 2.63093,-1.03567 3.2657,-0.968852 0.63476,0.06682 1.04402,-0.116932 1.99617,0.300678 0.95214,0.417608 2.83974,1.520095 2.83974,1.520095 0,0 1.186,0.785103 1.5368,1.620321 0.35079,0.835218 0.7851,3.240643 0.71828,4.242904 -0.0668,1.00226 -0.29506,3.111732 -0.29506,3.111732 l -0.0118,0.177176 2.85845,1.523719 c 0,0 1.72452,1.02762 2.05524,1.21661 0.33073,0.18899 1.99619,2.10249 2.18518,3.69708 0.18899,1.59459 -0.15355,3.04743 -0.15355,3.04743 0,0 -0.68509,2.12612 -1.07487,2.44504 -0.38979,0.31891 -3.13012,2.13793 -4.13412,2.46865 -1.004,0.33073 -1.98437,0.64965 -1.98437,0.64965 l -1.98438,0.59059 -0.27167,1.41741 9.61477,4.2168 1.18505,-1.19668 -0.65565,-1.48669 c 0,0 -1.17905,-2.31891 -1.22629,-2.7087 -0.0473,-0.38979 -0.27167,-1.24023 -0.16537,-1.63593 0.10631,-0.39569 -0.0473,-1.37607 0.33664,-2.22651 0.38388,-0.85045 0.72642,-1.54734 0.92131,-1.91941 0.1949,-0.37207 2.13823,-2.7807 2.70618,-2.99786 0.56795,-0.21716 1.98782,-0.66817 2.95667,-0.45102 0.96885,0.21716 5.80046,1.44088 6.69816,1.55899 0.89769,0.11812 1.06305,-0.11811 1.06305,-0.11811 0,0 -0.0945,-0.46066 0.22443,-0.73233 0.31891,-0.27167 1.70089,-1.34654 2.23242,-1.45285 0.53152,-0.10631 4.06323,-1.66546 5.52789,-1.59459 1.46466,0.0709 1.55915,0.0709 1.55915,0.0709 z"
       id="path52" />
    <path
       style="fill:#83c2c5;fill-opacity:1;stroke:#000000;stroke-width:0.264583px;stroke-linecap:butt;stroke-linejoin:miter;stroke-opacity:1"
       d="m 127.88802,120.64529 -9.61477,-4.2168 c 0,0 -3.00215,7.58457 -5.80848,7.85184 -2.80633,0.26727 -4.72761,0.16833 -5.93241,-1.06009 -1.2048,-1.22843 -4.55934,-5.6224 -4.55934,-5.6224 0,0 -3.118298,0.61421 -4.488464,0.51972 -1.370163,-0.0945 -6.425596,-0.75595 -7.087056,-3.40179 -0.66145,-2.64583 -1.03943,-4.63021 0,-6.42559 1.03944,-1.79539 2.6067,-3.00268 2.6067,-3.00268 l -10.20636,-4.6104 c 0,0 -2.5112,7.70757 -4.16485,8.13279 -1.65364,0.42523 -3.85063,0.21262 -4.89006,-0.25985 -1.03944,-0.47248 -2.26786,-0.85045 -2.85845,-1.27567 -0.59058,-0.42523 -3.7386,-4.82662 -3.7386,-4.82662 l -0.2798,-0.43431 -3.54112,0.0874 -4.15774,25.70238 -11.64895,72.1144 16.43708,7.61719 16.99275,-15.71188 17.481397,-16.91443 21.072173,-19.93824 19.43948,-18.94676 -2.53095,-2.73963 c 0,0 -3.34897,0.33421 -4.48487,0.16716 -1.1359,-0.16704 -4.30972,-1.00226 -4.89437,-1.33634 -0.58466,-0.33409 -1.921,-1.10249 -2.23839,-2.08805 -0.31738,-0.98555 -0.50112,-2.23838 -0.4176,-2.52235 0.0835,-0.28398 0.81851,-3.39098 1.01896,-3.75848 0.20045,-0.3675 0.33409,-0.7851 0.51784,-1.06073 0.18374,-0.27562 1.97625,-2.03977 1.97625,-2.03977 z"
       id="path54" />
    <rect
       style="fill:#de8787;fill-opacity:1;stroke-width:0.257885"
       id="rect88"
       width="33.255901"
       height="4.7106981"
       x="-89.151932"
       y="172.96178"
       transform="matrix(-0.90679466,-0.42157258,-0.06780613,0.99769852,0,0)" />
    <path
       style="fill:#83c2c5;fill-opacity:1;stroke:#000000;stroke-width:0.264583px;stroke-linecap:butt;stroke-linejoin:miter;stroke-opacity:1"
       d="m 46.33402,204.85298 c 0,0 -13.84635,17.56803 -14.18785,18.55656 -0.34151,0.98853 -0.48915,1.5303 0.078,1.51285 0.5672,-0.0174 2.81643,-0.46549 3.60214,-1.02394 0.78569,-0.55844 5.82674,-3.55121 5.82674,-3.55121 0,0 -2.59106,5.80716 -3.00831,7.24374 -0.41726,1.43658 -1.50775,3.95258 -1.4066,5.51293 0.10115,1.56034 0.37793,2.1776 0.72635,2.72476 0.34842,0.54717 1.64532,0.7739 2.16732,0.56696 0.52201,-0.20695 3.35231,-1.94802 4.71573,-3.49243 1.36342,-1.54441 4.77123,-6.42131 4.77123,-6.42131 l 1.20269,-1.97141 c 0,0 -0.0224,6.40211 0.67161,7.75628 0.69401,1.35417 0.76154,1.66203 1.18674,1.66666 0.42519,0.005 0.902,-0.39182 1.1919,-0.97928 0.28989,-0.58747 3.34543,-7.8307 3.34543,-7.8307 l 1.43895,-4.14233 3.00652,-9.25187 -15.23208,-7.0642 z"
       id="path90" />
  </g>
</svg>
