<?xml version="1.0" encoding="UTF-8" standalone="no"?>
<svg
   xmlns:dc="http://purl.org/dc/elements/1.1/"
   xmlns:cc="http://creativecommons.org/ns#"
   xmlns:rdf="http://www.w3.org/1999/02/22-rdf-syntax-ns#"
   xmlns:svg="http://www.w3.org/2000/svg"
   xmlns="http://www.w3.org/2000/svg"
   xmlns:sodipodi="http://sodipodi.sourceforge.net/DTD/sodipodi-0.dtd"
   xmlns:inkscape="http://www.inkscape.org/namespaces/inkscape"
   width="297mm"
   height="210mm"
   viewBox="0 0 297 210"
   version="1.1"
   id="svg1115"
   inkscape:version="1.0.1 (3bc2e813f5, 2020-09-07)"
   sodipodi:docname="fs.svg">
  <defs
     id="defs1109" />
  <sodipodi:namedview
     id="base"
     pagecolor="#ffffff"
     bordercolor="#666666"
     borderopacity="1.0"
     inkscape:pageopacity="0.0"
     inkscape:pageshadow="2"
     inkscape:zoom="0.7"
     inkscape:cx="475.25009"
     inkscape:cy="395.23578"
     inkscape:document-units="mm"
     inkscape:current-layer="layer1"
     inkscape:document-rotation="0"
     showgrid="false"
     units="mm"
     inkscape:window-width="1267"
     inkscape:window-height="1040"
     inkscape:window-x="130"
     inkscape:window-y="0"
     inkscape:window-maximized="0" />
  <metadata
     id="metadata1112">
    <rdf:RDF>
      <cc:Work
         rdf:about="">
        <dc:format>image/svg+xml</dc:format>
        <dc:type
           rdf:resource="http://purl.org/dc/dcmitype/StillImage" />
        <dc:title />
      </cc:Work>
    </rdf:RDF>
  </metadata>
  <g
     inkscape:label="Layer 1"
     inkscape:groupmode="layer"
     id="layer1">
    <path
       style="fill:#550000;stroke:#000000;stroke-width:0.43969px;stroke-linecap:butt;stroke-linejoin:miter;stroke-opacity:1"
       d="m 54.156915,133.54356 c 0,0 15.766797,-2.55243 14.375608,-12.76218 -1.391188,-10.20975 -2.318645,-13.613 5.564748,-19.14328 7.883392,-5.53028 28.751219,-8.29542 28.751219,-8.29542 l 38.25765,-1.488925 c 0,0 1.85492,-0.638109 5.79662,-3.615949 3.94169,-2.977844 12.75256,-1.063519 14.83934,0.850811 2.08677,1.914329 7.18781,4.041357 12.05696,4.041357 4.86916,0 40.11257,-0.212703 46.83664,2.55244 6.72409,2.765139 11.59324,6.381086 11.59324,6.381086 0,0 6.72406,5.53029 6.95593,15.52733 0.23186,9.99705 4.40543,12.54948 7.18782,13.1876 2.78236,0.6381 7.41966,-0.2127 8.81085,2.76513 1.39119,2.97785 -0.46373,9.99705 -0.46373,9.99705 0,0 -2.78238,3.40325 -5.79662,2.33973 -3.01424,-1.06351 -6.49222,0 -8.11527,4.89217 -1.62305,4.89217 2.08677,14.03841 -2.78236,18.93058 -4.86917,4.89216 -21.09969,13.8257 -38.02581,13.8257 -16.9261,0 -33.15664,1.06352 -33.15664,1.06352 0,0 -4.40543,-0.21271 -6.72407,2.12703 -2.31864,2.33974 -7.8834,3.40324 -10.43391,1.91432 -2.5505,-1.48892 -3.70984,-4.25406 -6.95593,-4.25406 -3.24611,0 -32.92478,-1.27623 -40.34444,-1.27623 -7.419664,0 -21.563414,-1.2762 -26.664432,-8.93351 -5.101022,-7.65733 -4.637293,-17.86705 -7.187805,-21.90843 -2.550512,-4.04135 -10.202046,-7.4446 -13.448145,-8.50812 -3.246105,-1.06351 -8.115263,-3.40325 -4.869161,-7.0192 3.246105,-3.61595 3.941698,-3.19055 3.941698,-3.19055 z"
       id="path1143" />
    <path
       style="fill:#aa4400;stroke:#000000;stroke-width:0.389462px;stroke-linecap:butt;stroke-linejoin:miter;stroke-opacity:1"
       d="m 63.200143,134.04596 c 0,0 14.299344,-2.20808 13.037644,-11.04044 -1.261711,-8.83236 -2.102844,-11.77647 5.046821,-16.56067 7.149676,-4.78419 26.075282,-7.17629 26.075282,-7.17629 l 34.69694,-1.288056 c 0,0 1.68228,-0.552021 5.25712,-3.128123 3.57482,-2.576105 11.56566,-0.92004 13.45822,0.736029 1.89255,1.656067 6.51882,3.49614 10.93479,3.49614 4.41598,0 36.37921,-0.184009 42.47746,2.20809 6.09825,2.3921 10.51425,5.52022 10.51425,5.52022 0,0 6.09824,4.7842 6.30851,13.43255 0.21029,8.64834 3.99541,10.85644 6.51883,11.40846 2.52342,0.55202 6.7291,-0.18401 7.99081,2.39209 1.26173,2.57611 -0.42057,8.64835 -0.42057,8.64835 0,0 -2.5234,2.94412 -5.2571,2.02408 -2.73371,-0.92003 -5.88799,0 -7.35998,4.23218 -1.47199,4.23217 1.89258,12.14449 -2.52339,16.37666 -4.41598,4.23215 -19.1359,11.96048 -34.48668,11.96048 -15.35077,0 -30.07069,0.92004 -30.07069,0.92004 0,0 -3.9954,-0.18401 -6.09825,1.84007 -2.10283,2.02408 -7.14968,2.94412 -9.46279,1.65606 -2.31313,-1.28804 -3.36457,-3.68014 -6.30853,-3.68014 -2.944,0 -29.86042,-1.10406 -36.58953,-1.10406 -6.72908,0 -19.556448,-1.10401 -24.182713,-7.72829 -4.626255,-6.6243 -4.205678,-15.45663 -6.51881,-18.95278 -2.313133,-3.49614 -9.252525,-6.44025 -12.196503,-7.36029 -2.943986,-0.92004 -7.359961,-2.94412 -4.41598,-6.07224 2.943984,-3.12813 3.574839,-2.76012 3.574839,-2.76012 z"
       id="path1143-7" />
    <rect
       style="fill:#550000;stroke-width:0.441985"
       id="rect1160"
       width="3.0300646"
       height="98.909859"
       x="88.009163"
       y="-0.16035441" />
    <text
       xml:space="preserve"
       style="font-style:normal;font-variant:normal;font-weight:normal;font-stretch:normal;font-size:24.3239px;line-height:1.25;font-family:'Berlin Sans FB Demi';-inkscape-font-specification:'Berlin Sans FB Demi, Normal';font-variant-ligatures:normal;font-variant-caps:normal;font-variant-numeric:normal;font-variant-east-asian:normal;fill:#000000;fill-opacity:1;stroke:none;stroke-width:0.608098"
       x="101.19472"
       y="122.8847"
       id="text1179"
       transform="scale(0.83682567,1.194992)"><tspan
         sodipodi:role="line"
         id="tspan1177"
         x="101.19472"
         y="122.8847"
         style="font-style:normal;font-variant:normal;font-weight:normal;font-stretch:normal;font-size:24.3239px;font-family:'Berlin Sans FB Demi';-inkscape-font-specification:'Berlin Sans FB Demi, Normal';font-variant-ligatures:normal;font-variant-caps:normal;font-variant-numeric:normal;font-variant-east-asian:normal;stroke-width:0.608098">FLOWER SHOP</tspan></text>
    <rect
       style="fill:#550000;stroke-width:0.441909"
       id="rect1160-2"
       width="3.0300646"
       height="98.875435"
       x="220.15465"
       y="-0.12592845" />
  </g>
</svg>
