<?xml version="1.0" encoding="UTF-8" standalone="no"?>
<svg
   xmlns:dc="http://purl.org/dc/elements/1.1/"
   xmlns:cc="http://creativecommons.org/ns#"
   xmlns:rdf="http://www.w3.org/1999/02/22-rdf-syntax-ns#"
   xmlns:svg="http://www.w3.org/2000/svg"
   xmlns="http://www.w3.org/2000/svg"
   xmlns:sodipodi="http://sodipodi.sourceforge.net/DTD/sodipodi-0.dtd"
   xmlns:inkscape="http://www.inkscape.org/namespaces/inkscape"
   width="210mm"
   height="148mm"
   viewBox="0 0 210 148"
   version="1.1"
   id="svg8"
   sodipodi:docname="plants.svg"
   inkscape:version="1.0.1 (3bc2e813f5, 2020-09-07)">
  <defs
     id="defs2" />
  <sodipodi:namedview
     id="base"
     pagecolor="#ffffff"
     bordercolor="#666666"
     borderopacity="1.0"
     inkscape:pageopacity="0.0"
     inkscape:pageshadow="2"
     inkscape:zoom="0.9899495"
     inkscape:cx="285.54464"
     inkscape:cy="351.68471"
     inkscape:document-units="mm"
     inkscape:current-layer="layer1"
     inkscape:document-rotation="0"
     showgrid="false"
     units="mm"
     inkscape:window-width="1920"
     inkscape:window-height="1017"
     inkscape:window-x="-8"
     inkscape:window-y="-8"
     inkscape:window-maximized="1" />
  <metadata
     id="metadata5">
    <rdf:RDF>
      <cc:Work
         rdf:about="">
        <dc:format>image/svg+xml</dc:format>
        <dc:type
           rdf:resource="http://purl.org/dc/dcmitype/StillImage" />
        <dc:title />
      </cc:Work>
    </rdf:RDF>
  </metadata>
  <g
     inkscape:label="Layer 1"
     inkscape:groupmode="layer"
     id="layer1">
    <path
       style="fill:#e65e34;fill-opacity:1;stroke:#000000;stroke-width:0.7;stroke-linecap:butt;stroke-linejoin:miter;stroke-opacity:1;stroke-miterlimit:4;stroke-dasharray:none"
       d="m 1.4743557,138.40029 184.2523543,0.31642 v 6.64468 L 1.4743557,145.59868 Z"
       id="path24" />
    <path
       style="fill:#980f23;fill-opacity:1;stroke:#000000;stroke-width:0.7;stroke-linecap:butt;stroke-linejoin:miter;stroke-opacity:1;stroke-miterlimit:4;stroke-dasharray:none"
       d="m 13.465433,117.51925 5.594638,20.51322 h 25.475584 l 6.094157,-20.51322 z"
       id="path26" />
    <path
       style="fill:#d01534;fill-opacity:1;stroke:#000000;stroke-width:0.7;stroke-linecap:butt;stroke-linejoin:miter;stroke-opacity:1;stroke-miterlimit:4;stroke-dasharray:none"
       d="m 10.966057,116.73501 h 42.063221 v -8.39016 l -41.863396,-0.22372 z"
       id="path28" />
    <path
       style="fill:#5da719;fill-opacity:1;stroke:#000000;stroke-width:0.7;stroke-linecap:butt;stroke-linejoin:miter;stroke-opacity:1;stroke-miterlimit:4;stroke-dasharray:none"
       d="m 14.76685,108.04732 c 0,0 -3.107868,-14.663764 -4.278178,-15.30542 -1.1703114,-0.641689 -1.6422484,-1.240467 -1.6422484,-1.240467 0,0 1.8388614,-0.798733 3.0037904,-0.04336 1.16493,0.755271 2.556296,0.954724 3.88602,4.569118 1.329726,3.614444 4.329061,12.117709 4.329061,12.117709 z"
       id="path30" />
    <path
       style="fill:#63a71b;fill-opacity:1;stroke:#000000;stroke-width:0.7;stroke-linecap:butt;stroke-linejoin:miter;stroke-opacity:1;stroke-miterlimit:4;stroke-dasharray:none"
       d="m 21.157146,108.07783 c 0,0 -0.699389,-11.051132 -1.548645,-13.261372 -0.849258,-2.210222 -6.844017,-13.204671 -6.893973,-13.431382 -0.04995,-0.226676 2.447859,0.396714 2.897466,0.850101 0.449607,0.453369 5.894846,7.707448 6.993885,9.23761 1.099039,1.530161 6.044716,11.334503 6.444365,12.807983 0.399651,1.47348 1.148996,3.85374 1.148996,3.85374 z"
       id="path32" />
    <path
       style="fill:#63a71b;fill-opacity:1;stroke:#000000;stroke-width:0.7;stroke-linecap:butt;stroke-linejoin:miter;stroke-opacity:1;stroke-miterlimit:4;stroke-dasharray:none"
       d="m 31.048498,106.07623 c 0,0 2.947423,-16.593487 5.944801,-19.843787 2.99738,-3.250251 3.596855,-4.105607 3.596855,-4.105607 l 0.899213,-0.798315 c 0,0 -1.19895,1.881736 -1.89834,5.132021 -0.699388,3.250267 -2.347947,13.229188 -2.098164,15.510108 0.249781,2.28088 0.349694,2.28088 0.849257,3.76347 0.499564,1.48258 0.499564,1.48258 0.499564,1.48258 0,0 3.347072,-10.264052 6.344449,-14.027524 2.997382,-3.763458 3.496946,-8.781446 6.344456,-9.237628 2.847508,-0.456183 3.297118,-2.508977 3.297118,-2.508977 l -0.69939,3.592417 c 0,0 -1.198952,2.623026 -1.898342,4.105606 -0.699386,1.482579 -4.246287,8.439312 -4.59598,10.092972 -0.349693,1.653634 -0.549519,8.952504 -0.549519,8.952504 l -15.786197,-0.17105 h -0.462096 z"
       id="path34" />
    <path
       style="fill:#980f23;fill-opacity:1;stroke:#000000;stroke-width:0.7;stroke-linecap:butt;stroke-linejoin:miter;stroke-opacity:1;stroke-miterlimit:4;stroke-dasharray:none"
       d="m 68.23091,117.99276 5.595109,20.24824 h 25.477718 l 6.094683,-20.24824 z"
       id="path26-2" />
    <path
       style="fill:#d01534;fill-opacity:1;stroke:#000000;stroke-width:0.7;stroke-linecap:butt;stroke-linejoin:miter;stroke-opacity:1;stroke-miterlimit:4;stroke-dasharray:none"
       d="M 66.648374,117.10679 H 108.7116 v -8.39015 l -41.863401,-0.22373 z"
       id="path28-1" />
    <path
       style="fill:#47861e;fill-opacity:1;stroke:#000000;stroke-width:0.7;stroke-linecap:butt;stroke-linejoin:miter;stroke-opacity:1;stroke-miterlimit:4;stroke-dasharray:none"
       d="m 83.627985,108.47357 c 0,0 0.412181,-2.93926 0.314026,-8.946772 -0.09817,-6.007511 -1.180247,-9.298764 -1.560764,-12.777867 -0.380517,-3.479154 0.514285,-14.396537 0.819458,-16.113444 0.305173,-1.716883 1.835833,-2.584729 1.952062,-0.964333 0.116253,1.620419 -0.111374,6.096371 -0.111374,6.096371 0,0 -0.92455,7.344287 -0.300342,9.433664 0.624196,2.089361 1.656277,8.631634 1.838557,10.08719 0.182269,1.45554 1.802076,8.788821 1.651816,10.987501 -0.150261,2.19869 -0.218596,2.28243 -0.218596,2.28243 z"
       id="path66" />
    <path
       style="fill:#6ebb53;fill-opacity:1;stroke:#000000;stroke-width:0.7;stroke-linecap:butt;stroke-linejoin:miter;stroke-opacity:1;stroke-miterlimit:4;stroke-dasharray:none"
       d="m 83.750271,102.72371 c 0,0 -10.668063,0.82417 -14.763619,-0.99696 -4.095556,-1.821122 -8.070621,-4.766564 -9.044617,-7.225466 -0.973994,-2.458868 -2.38344,-8.621305 -1.978173,-9.752663 0.405268,-1.131355 4.806528,0.826285 4.806528,0.826285 0,0 6.026191,0.08491 7.098783,0.29869 1.072593,0.213785 4.738893,0.05375 7.274449,2.233768 2.535564,2.180054 5.352652,5.115966 6.317254,7.094513 0.964614,1.978562 0.289407,7.521833 0.289407,7.521833 z"
       id="path68"
       sodipodi:nodetypes="cssscssscc" />
    <path
       style="fill:#79b24c;fill-opacity:1;stroke:#000000;stroke-width:0.7;stroke-linecap:butt;stroke-linejoin:miter;stroke-opacity:1;stroke-miterlimit:4;stroke-dasharray:none"
       d="m 82.232998,82.358569 c 0,0 -11.479186,-2.29469 -12.732236,-5.258527 -1.253047,-2.963854 -2.593062,-8.247573 -1.734098,-8.208028 0.858957,0.03968 2.860861,-0.473096 4.881621,0.764047 2.020754,1.237111 4.715847,0.172696 6.623055,2.430269 1.907215,2.257571 2.62481,4.247247 2.954816,5.807564 0.330018,1.560313 0.0071,4.464698 0.0071,4.464698 z"
       id="path70"
       sodipodi:nodetypes="csccsscc" />
    <path
       style="fill:#7ec260;fill-opacity:1;stroke:#000000;stroke-width:0.7;stroke-linecap:butt;stroke-linejoin:miter;stroke-opacity:1;stroke-miterlimit:4;stroke-dasharray:none"
       d="m 83.053015,70.253523 c 0,0 -2.497808,-2.908577 -1.298856,-6.60026 1.198952,-3.691666 2.69764,-6.152793 4.695893,-7.495205 1.998254,-1.342428 2.597724,-2.572984 2.597724,-2.572984 l 0.499567,-1.230555 1.798422,6.040904 c 0,0 1.198952,4.25103 -0.09995,6.376522 -1.298856,2.125525 -2.297989,4.810356 -3.796676,5.593435 -1.498688,0.783096 -2.09817,0 -2.09817,0 0,0 -2.198073,-0.671206 -2.297989,-0.11184 z"
       id="path72" />
    <path
       style="fill:#71c960;fill-opacity:1;stroke:#000000;stroke-width:0.7;stroke-linecap:butt;stroke-linejoin:miter;stroke-opacity:1;stroke-miterlimit:4;stroke-dasharray:none"
       d="M 83.102979,68.74331 Z"
       id="path74" />
    <path
       style="fill:#79b24c;fill-opacity:1;stroke:#000000;stroke-width:0.7;stroke-linecap:butt;stroke-linejoin:miter;stroke-opacity:1;stroke-miterlimit:4;stroke-dasharray:none"
       d="m 85.154159,74.713301 c 0,0 2.813393,-4.587423 7.81528,-3.30833 5.001898,1.279075 7.034401,2.087099 8.148521,1.996608 1.11413,-0.09058 1.89519,-0.896344 1.89519,-0.896344 l -2.47364,3.758053 c 0,0 -3.25981,3.941127 -6.226273,4.483081 -2.966475,0.541921 -7.121917,-0.12424 -8.217539,-1.269208 -1.095621,-1.144968 -1.173509,-1.730307 -1.173509,-1.730307 z"
       id="path76"
       sodipodi:nodetypes="csccccscc" />
    <path
       style="fill:#79b24c;fill-opacity:1;stroke:#000000;stroke-width:0.7;stroke-linecap:butt;stroke-linejoin:miter;stroke-opacity:1;stroke-miterlimit:4;stroke-dasharray:none"
       d="m 86.774276,95.589104 c 0,-0.559327 1.563013,-6.173816 6.352872,-8.475723 4.789869,-2.301889 6.700499,-2.775555 6.700499,-2.775555 0,0 6.723473,-0.707504 7.681433,-0.832251 0.95798,-0.124732 3.46662,-0.212392 3.71871,-0.327646 0.25211,-0.115189 -0.3025,3.639797 -0.55461,5.377164 -0.25209,1.737366 -1.42512,4.081272 -1.82848,5.037583 -0.40336,0.956337 -3.31431,3.981189 -3.91936,4.324953 -0.60503,0.343753 -3.27726,1.778097 -5.294059,2.029016 -2.016784,0.250885 -5.899094,0.918485 -7.411691,0.938835 -1.512585,0.0204 -4.6386,-0.2172 -4.6386,-0.2172 z"
       id="path78"
       sodipodi:nodetypes="cscscssscccc" />
    <path
       style="fill:#e1e1e0;fill-opacity:1;stroke:#000000;stroke-width:0.7;stroke-linecap:butt;stroke-linejoin:miter;stroke-miterlimit:4;stroke-dasharray:none;stroke-opacity:0.963855"
       d="m 124.65287,68.503635 c 11.07766,0.147577 54.61292,0.375375 54.11029,0.604158 l -12.47323,69.182097 -27.51304,-0.0654 z"
       id="path108"
       sodipodi:nodetypes="ccccc" />
    <rect
       style="fill:#7b7f34;fill-opacity:1;stroke-width:0.71206247;stroke-miterlimit:4;stroke-dasharray:none"
       id="rect110"
       width="1.4144754"
       height="16.753834"
       x="120.36665"
       y="47.298134"
       transform="matrix(0.99883263,0.04830497,0.2100358,0.9776937,0,0)" />
    <path
       style="fill:#df3b73;fill-opacity:1;stroke:#000000;stroke-width:0.7;stroke-linecap:butt;stroke-linejoin:miter;stroke-opacity:1;stroke-miterlimit:4;stroke-dasharray:none"
       d="m 131.57326,52.124933 c 0,0 -4.84681,2.483297 -7.75988,-0.380586 -2.91306,-2.863884 -2.80298,-5.926687 -2.80298,-5.926687 l -0.36223,-7.432312 c 1.7277,4.018669 6.21969,7.527537 8.36166,9.935993 l 0.79787,-5.478943 1.48551,-4.811299 c 0,0 -1.6e-4,1.623228 1.57447,3.582725 1.57463,1.959499 2.44067,3.843634 2.36194,5.953861 -0.0787,2.11023 -1.48659,4.441845 -3.65635,4.557248 z"
       id="path112"
       sodipodi:nodetypes="cscccccsccc" />
    <path
       style="fill:#e60d5c;fill-opacity:1;stroke:#000000;stroke-width:0.7;stroke-linecap:butt;stroke-linejoin:miter;stroke-opacity:1;stroke-miterlimit:4;stroke-dasharray:none"
       d="m 123.12575,42.131336 1.28592,-1.946309 c 0,0 1.83486,-3.726288 1.83486,-4.178366 0,-0.452073 1.0693,2.174841 1.70838,3.305035 0.63908,1.130191 1.85279,3.530702 1.85279,3.530702 l -0.79787,5.478943 z"
       id="path114"
       sodipodi:nodetypes="ccssccc" />
    <rect
       style="fill:#7b7f34;fill-opacity:1;stroke-width:0.70731126;stroke-miterlimit:4;stroke-dasharray:none"
       id="rect110-0"
       width="1.3520132"
       height="32.763096"
       x="135.24699"
       y="22.49728"
       transform="matrix(0.99493179,0.10055216,0.10226068,0.99475764,0,0)"
       inkscape:transform-center-x="1.9489883"
       inkscape:transform-center-y="3.1855266" />
    <path
       style="fill:#df3b73;fill-opacity:1;stroke:#000000;stroke-width:0.7;stroke-linecap:butt;stroke-linejoin:miter;stroke-opacity:1;stroke-miterlimit:4;stroke-dasharray:none"
       d="m 138.20729,36.099761 c 0,0 -4.42542,1.093062 -7.34262,-2.343232 -2.9172,-3.436292 -1.39112,-9.65826 -1.39112,-9.65826 l 0.31477,-1.541446 5.97896,9.122039 2.39579,-10.025952 c 0,0 0.97093,0.841761 2.50704,3.147085 1.53609,2.305325 2.30112,4.451041 2.00569,6.73943 -0.29536,2.288398 -2.07307,4.672262 -4.46851,4.560336 z"
       id="path112-0" />
    <path
       style="fill:#e60d5c;fill-opacity:1;stroke:#000000;stroke-width:0.7;stroke-linecap:butt;stroke-linejoin:miter;stroke-opacity:1;stroke-miterlimit:4;stroke-dasharray:none"
       d="m 131.53523,24.660942 0.96533,-3.190226 c 0,0 0.7168,-2.036552 0.75508,-2.536884 0.0383,-0.500327 2.9808,2.943648 3.5221,4.24952 0.54132,1.30587 0.46169,1.29899 0.46169,1.29899 l -1.47215,7.19652 z"
       id="path114-6" />
    <rect
       style="fill:#7b7f34;fill-opacity:1;stroke-width:0.71132449;stroke-miterlimit:4;stroke-dasharray:none"
       id="rect110-00"
       width="0.60031003"
       height="16.895582"
       x="149.69308"
       y="15.5024"
       transform="matrix(0.97054416,0.24092329,0.00869404,0.99996221,0,0)" />
    <path
       style="fill:#df3b73;fill-opacity:1;stroke:#000000;stroke-width:0.7;stroke-linecap:butt;stroke-linejoin:miter;stroke-opacity:1;stroke-miterlimit:4;stroke-dasharray:none"
       d="m 146.00116,51.710996 c 0,0 -4.15498,0.286063 -6.1056,-3.248228 -1.9506,-3.534288 0.5907,-8.867754 0.5907,-8.867754 l 0.57313,-1.331234 3.60356,9.105824 4.03854,-8.604144 c 0,0 0.70648,0.905896 1.63958,3.211057 0.9331,2.305164 1.20863,4.346653 0.51111,6.349883 -0.69748,2.003239 -2.73539,3.859888 -4.85102,3.384596 z"
       id="path112-5" />
    <path
       style="fill:#e60d5c;fill-opacity:1;stroke:#000000;stroke-width:0.7;stroke-linecap:butt;stroke-linejoin:miter;stroke-opacity:1;stroke-miterlimit:4;stroke-dasharray:none"
       d="m 141.99908,40.321793 1.59339,-2.604212 c 0,0 1.11535,-1.641575 1.25482,-2.073491 0.13941,-0.43192 2.30909,3.20683 2.57101,4.467276 0.26191,1.260441 0.0742,1.211212 0.0742,1.211212 l -2.79439,6.047717 z"
       id="path114-0"
       sodipodi:nodetypes="ccssccc" />
    <rect
       style="fill:#7b7f34;fill-opacity:1;stroke-width:0.70668228;stroke-miterlimit:4;stroke-dasharray:none"
       id="rect110-0-7"
       width="0.95593399"
       height="33.092236"
       x="158.92509"
       y="-5.6718402"
       transform="matrix(0.96564337,0.25987091,-0.0685071,0.99765063,0,0)"
       inkscape:transform-center-x="2.4684339"
       inkscape:transform-center-y="2.881677" />
    <path
       style="fill:#df3b73;fill-opacity:1;stroke:#000000;stroke-width:0.7;stroke-linecap:butt;stroke-linejoin:miter;stroke-opacity:1;stroke-miterlimit:4;stroke-dasharray:none"
       d="m 156.02365,35.889912 c 0,0 -4.7717,0.286063 -7.01185,-3.248228 -2.24012,-3.534287 0.67837,-8.867753 0.67837,-8.867753 l 0.65821,-1.331235 4.13844,9.105824 4.63798,-8.604143 c 0,0 0.81133,0.905896 1.88294,3.211056 1.07161,2.305165 1.38802,4.346654 0.58698,6.349883 -0.80101,2.003239 -3.14142,3.859889 -5.57107,3.384596 z"
       id="path112-5-4" />
    <path
       style="fill:#e60d5c;fill-opacity:1;stroke:#000000;stroke-width:0.7;stroke-linecap:butt;stroke-linejoin:miter;stroke-opacity:1;stroke-miterlimit:4;stroke-dasharray:none"
       d="m 151.31454,24.293872 2.0666,-3.118263 c 0,0 1.11535,-1.764054 1.25482,-2.228196 0.13942,-0.464144 2.3091,3.446095 2.57101,4.800583 0.26191,1.354484 0.63096,1.330217 0.63096,1.330217 l -3.35111,6.470307 z"
       id="path114-0-6"
       sodipodi:nodetypes="ccssccc" />
    <rect
       style="fill:#7b7f34;fill-opacity:1;stroke-width:0.70798938;stroke-miterlimit:4;stroke-dasharray:none"
       id="rect110-00-7"
       width="0.59452826"
       height="14.452332"
       x="170.03304"
       y="5.5373502"
       transform="matrix(0.9575181,0.28837316,-0.08018519,0.99677998,0,0)" />
    <path
       style="fill:#df3b73;fill-opacity:1;stroke:#000000;stroke-width:0.7;stroke-linecap:butt;stroke-linejoin:miter;stroke-opacity:1;stroke-miterlimit:4;stroke-dasharray:none"
       d="m 162.93497,54.723929 c 0,0 -4.12922,-0.526668 -5.29035,-4.366242 -1.16111,-3.839565 2.45755,-8.568701 2.45755,-8.568701 l 0.8433,-1.192273 1.59908,9.616236 c 1.90858,-2.164942 3.78629,-3.65066 5.77785,-7.641095 0,0 0.49982,1.024243 0.92505,3.462664 0.42522,2.438425 0.26241,4.490972 -0.84509,6.317118 -1.10749,1.826159 -3.49647,3.248504 -5.46739,2.372293 z"
       id="path112-5-0"
       sodipodi:nodetypes="csccccssc" />
    <path
       style="fill:#e60d5c;fill-opacity:1;stroke:#000000;stroke-width:0.7;stroke-linecap:butt;stroke-linejoin:miter;stroke-opacity:1;stroke-miterlimit:4;stroke-dasharray:none"
       d="m 161.38644,42.788143 2.10947,-2.242963 c 0,0 1.43839,-1.392434 1.66601,-1.788536 0.22758,-0.396115 0.65034,1.649111 0.64123,2.93422 -0.009,1.285105 0.95334,3.639478 0.95334,3.639478 l -4.21194,4.882607 z"
       id="path114-0-0"
       sodipodi:nodetypes="ccssccc" />
    <rect
       style="fill:#7b7f34;fill-opacity:1;stroke-width:0.71206247;stroke-miterlimit:4;stroke-dasharray:none"
       id="rect110-04"
       width="1.4144754"
       height="16.753834"
       x="120.46565"
       y="47.247494"
       transform="matrix(0.99883263,0.04830497,0.2100358,0.9776937,0,0)" />
    <rect
       style="fill:#7b7f34;fill-opacity:1;stroke-width:0.7011777;stroke-miterlimit:4;stroke-dasharray:none"
       id="rect110-0-7-3"
       width="1.1702392"
       height="28.293871"
       x="177.14426"
       y="8.4003582"
       transform="matrix(0.98347986,0.18101756,-0.09989983,0.9949975,0,0)"
       inkscape:transform-center-x="3.0776396"
       inkscape:transform-center-y="2.4572849" />
    <path
       style="fill:#df3b73;fill-opacity:1;stroke:#000000;stroke-width:0.7;stroke-linecap:butt;stroke-linejoin:miter;stroke-opacity:1;stroke-miterlimit:4;stroke-dasharray:none"
       d="m 175.90149,40.425822 c 0,0 -5.11952,0.286063 -7.52296,-3.248221 -2.40341,-3.534279 0.25545,-8.792368 0.25545,-8.792368 l 1.41474,-2.838539 c 1.28922,3.5076 5.1463,6.273054 4.20392,10.537745 0.30453,-5.445041 4.01815,-6.73675 6.39321,-9.65924 0,0 -0.54669,1.96101 0.60302,4.266165 1.14973,2.305159 1.48921,4.346644 0.62978,6.349869 -0.85941,2.003234 -3.37041,3.859882 -5.97716,3.384589 z"
       id="path112-5-4-9"
       sodipodi:nodetypes="csccccssc" />
    <path
       style="fill:#e60d5c;fill-opacity:1;stroke:#000000;stroke-width:0.7;stroke-linecap:butt;stroke-linejoin:miter;stroke-opacity:1;stroke-miterlimit:4;stroke-dasharray:none"
       d="m 170.9935,27.054001 2.3667,-2.935173 c 0,0 1.7452,-2.517707 1.88467,-2.981849 0.13941,-0.464144 1.60052,2.692443 1.86243,4.046931 0.26192,1.354484 1.57026,3.276153 1.57026,3.276153 -3.68525,3.316534 -2.44943,1.95129 -4.13295,5.202659 -0.66948,-3.18156 -1.93991,-3.96803 -3.55111,-6.608721 z"
       id="path114-0-6-1"
       sodipodi:nodetypes="ccssccc" />
  </g>
</svg>
